<svg width="36" height="45" viewBox="0 0 36 45" fill="none" xmlns="http://www.w3.org/2000/svg">
<path d="M9.5 9L18.5 2L27.5 9V20C27.5 20.5304 27.2893 21.0391 26.9142 21.4142C26.5391 21.7893 26.0304 22 25.5 22H11.5C10.9696 22 10.4609 21.7893 10.0858 21.4142C9.71071 21.0391 9.5 20.5304 9.5 20V9Z" stroke="white" stroke-width="2" stroke-linecap="round" stroke-linejoin="round"/>
<path d="M15.5 22V12H21.5V22" stroke="white" stroke-width="2" stroke-linecap="round" stroke-linejoin="round"/>
<path d="M7.63014 40.8478C7.64081 41.0611 7.64614 41.2851 7.64614 41.5198C7.64614 41.7438 7.64081 41.9518 7.63014 42.1438C7.61947 42.4318 7.60347 42.6985 7.58214 42.9438C7.56081 43.1785 7.51814 43.3811 7.45414 43.5518C7.39014 43.7118 7.28881 43.8345 7.15014 43.9198C7.02214 43.9945 6.84081 44.0158 6.60614 43.9838C6.36081 43.9518 6.18481 43.8345 6.07814 43.6318C5.97147 43.4291 5.89681 43.1998 5.85414 42.9438C5.82214 42.6771 5.81147 42.4105 5.82214 42.1438C5.83281 41.8771 5.83281 41.6691 5.82214 41.5198C5.81147 41.2851 5.80081 41.0185 5.79014 40.7198C5.79014 40.4105 5.75814 40.1225 5.69414 39.8558C5.64081 39.5785 5.54481 39.3438 5.40614 39.1518C5.26747 38.9598 5.05947 38.8585 4.78214 38.8478C4.43014 38.8265 4.15814 38.8531 3.96614 38.9278C3.78481 39.0025 3.65147 39.1145 3.56614 39.2638C3.48081 39.4025 3.42747 39.5731 3.40614 39.7758C3.39547 39.9785 3.37414 40.1971 3.34214 40.4318L3.32614 41.0558V42.2238C3.32614 42.4158 3.32081 42.6185 3.31014 42.8318C3.31014 43.0345 3.27814 43.2211 3.21414 43.3918C3.15014 43.5625 3.04881 43.7065 2.91014 43.8238C2.78214 43.9411 2.59014 43.9998 2.33414 43.9998C2.01414 43.9998 1.77414 43.8985 1.61414 43.6958C1.4648 43.4825 1.39014 43.2211 1.39014 42.9118V33.7118C1.39014 33.6478 1.39014 33.5891 1.39014 33.5358C1.4008 33.4718 1.41147 33.4078 1.42214 33.3438C1.44347 33.2798 1.45947 33.2211 1.47014 33.1678C1.4808 33.1038 1.4968 33.0451 1.51814 32.9918C1.55014 32.8851 1.60347 32.8051 1.67814 32.7518C1.73147 32.6985 1.78481 32.6558 1.83814 32.6238C1.89147 32.5918 1.95014 32.5705 2.01414 32.5598C2.06747 32.5491 2.12614 32.5438 2.19014 32.5438C2.25414 32.5331 2.31814 32.5278 2.38214 32.5278C2.54214 32.5278 2.69681 32.5758 2.84614 32.6718C2.91014 32.7145 2.96881 32.7625 3.02214 32.8158C3.07547 32.8585 3.11814 32.9225 3.15014 33.0078C3.23547 33.2105 3.27814 33.4025 3.27814 33.5838C3.28881 33.6371 3.29414 33.7171 3.29414 33.8238C3.30481 33.9198 3.31014 34.0211 3.31014 34.1278C3.31014 34.2345 3.31014 34.3411 3.31014 34.4478C3.32081 34.5438 3.32614 34.6185 3.32614 34.6718V34.7518C3.33681 35.0931 3.34214 35.4398 3.34214 35.7918C3.34214 36.1438 3.34214 36.5011 3.34214 36.8638V37.1358C3.79014 36.9865 4.25947 36.9171 4.75014 36.9278C5.24081 36.9278 5.67814 37.0238 6.06214 37.2158C6.45681 37.4185 6.75547 37.6478 6.95814 37.9038C7.17147 38.1598 7.32614 38.4425 7.42214 38.7518C7.51814 39.0611 7.57147 39.3918 7.58214 39.7438C7.60347 40.0958 7.61947 40.4638 7.63014 40.8478ZM10.9854 36.7678C11.3374 36.5971 11.7054 36.4745 12.0894 36.3998C12.4734 36.3251 12.852 36.3091 13.2254 36.3518C13.6094 36.3945 13.9774 36.4958 14.3294 36.6558C14.692 36.8158 15.0227 37.0398 15.3214 37.3278C15.5667 37.5731 15.78 37.8718 15.9614 38.2238C16.1427 38.5651 16.276 38.9011 16.3613 39.2318C16.5427 39.8185 16.5694 40.4105 16.4414 41.0078C16.3134 41.6051 16.0947 42.1598 15.7854 42.6718C15.636 42.9065 15.4494 43.1198 15.2254 43.3118C15.012 43.4931 14.7827 43.6425 14.5374 43.7598C14.2174 43.9091 13.8707 44.0105 13.4974 44.0638C13.124 44.1278 12.7614 44.1438 12.4094 44.1118C11.7694 44.0798 11.204 43.9198 10.7134 43.6318C10.2334 43.3438 9.84406 42.9758 9.54539 42.5278C9.25739 42.0798 9.06539 41.5731 8.96939 41.0078C8.88406 40.4318 8.92139 39.8451 9.08139 39.2478C9.25206 38.6078 9.49739 38.0905 9.81739 37.6958C10.1481 37.2905 10.5374 36.9811 10.9854 36.7678ZM11.4654 38.9118C11.3054 39.0611 11.1827 39.2478 11.0974 39.4718C11.012 39.6958 10.9587 39.9305 10.9374 40.1758C10.916 40.4105 10.932 40.6505 10.9854 40.8958C11.0494 41.1305 11.1454 41.3438 11.2734 41.5358C11.38 41.6958 11.572 41.8291 11.8494 41.9358C12.1267 42.0425 12.4147 42.1065 12.7134 42.1278C13.0547 42.1491 13.3534 42.0585 13.6094 41.8558C13.8654 41.6425 14.0574 41.3811 14.1854 41.0718C14.324 40.7625 14.388 40.4265 14.3774 40.0638C14.3667 39.7011 14.2707 39.3705 14.0894 39.0718C13.9614 38.8585 13.78 38.7038 13.5454 38.6078C13.3214 38.5011 13.0814 38.4478 12.8254 38.4478C12.58 38.4371 12.3347 38.4745 12.0894 38.5598C11.844 38.6345 11.636 38.7518 11.4654 38.9118ZM26.4684 40.2718C26.4897 40.6131 26.5004 40.9385 26.5004 41.2478C26.5004 41.5465 26.4897 41.8665 26.4684 42.2078C26.4684 42.3358 26.4684 42.4798 26.4684 42.6398C26.4684 42.7998 26.4577 42.9545 26.4364 43.1038C26.415 43.2531 26.3777 43.3918 26.3244 43.5198C26.271 43.6478 26.191 43.7491 26.0844 43.8238C25.9564 43.9091 25.8124 43.9678 25.6524 43.9998C25.4924 44.0211 25.343 44.0105 25.2044 43.9678C25.0657 43.9251 24.943 43.8451 24.8364 43.7278C24.7404 43.6105 24.687 43.4451 24.6764 43.2318C24.6444 42.7411 24.6284 42.2505 24.6284 41.7598C24.6284 41.5145 24.623 41.2798 24.6124 41.0558C24.6124 40.8318 24.6177 40.5171 24.6284 40.1118C24.6284 39.9091 24.6124 39.6798 24.5804 39.4238C24.5484 39.1571 24.4684 38.9705 24.3404 38.8638C24.2444 38.7785 24.1377 38.7305 24.0204 38.7198C23.903 38.6985 23.7857 38.7091 23.6684 38.7518C23.5617 38.7945 23.4657 38.8745 23.3804 38.9918C23.295 39.0985 23.2364 39.2371 23.2044 39.4078C23.2044 39.5465 23.199 39.6905 23.1884 39.8398C23.1884 39.9785 23.1937 40.1118 23.2044 40.2398C23.215 40.5811 23.2204 40.9065 23.2204 41.2158C23.2204 41.5145 23.215 41.8345 23.2044 42.1758C23.1937 42.3145 23.1884 42.4638 23.1884 42.6238C23.199 42.7838 23.199 42.9438 23.1884 43.1038C23.1777 43.2531 23.1457 43.3918 23.0924 43.5198C23.0497 43.6478 22.9697 43.7491 22.8524 43.8238C22.7244 43.9091 22.5857 43.9625 22.4364 43.9838C22.2977 43.9945 22.1644 43.9731 22.0364 43.9198C21.919 43.8558 21.8124 43.7598 21.7164 43.6318C21.631 43.5038 21.583 43.3331 21.5724 43.1198C21.551 42.8745 21.535 42.6505 21.5244 42.4478C21.5244 42.2345 21.5244 42.0105 21.5244 41.7758C21.5244 41.5305 21.5297 41.2798 21.5404 41.0238C21.551 40.7571 21.5457 40.5011 21.5244 40.2558C21.5244 40.1811 21.519 40.0958 21.5084 39.9998C21.5084 39.8931 21.503 39.7865 21.4924 39.6798C21.4924 39.5731 21.4817 39.4718 21.4604 39.3758C21.4497 39.2691 21.4284 39.1838 21.3964 39.1198C21.311 38.9705 21.1564 38.8745 20.9324 38.8318C20.719 38.7891 20.5377 38.8051 20.3884 38.8798C20.239 38.9545 20.127 39.0505 20.0524 39.1678C19.9777 39.2851 19.9244 39.4131 19.8924 39.5518C19.8604 39.6905 19.8444 39.8398 19.8444 39.9998C19.8444 40.1491 19.8444 40.2931 19.8444 40.4318C19.8444 41.1251 19.8444 41.7278 19.8444 42.2398C19.855 42.7411 19.8017 43.1465 19.6844 43.4558C19.631 43.6158 19.519 43.7385 19.3484 43.8238C19.1884 43.9091 19.0124 43.9518 18.8204 43.9518C18.639 43.9518 18.4684 43.9091 18.3084 43.8238C18.1484 43.7385 18.0417 43.6051 17.9884 43.4238C17.9564 43.3065 17.9244 43.1411 17.8924 42.9278C17.871 42.7038 17.855 42.4585 17.8444 42.1918C17.8337 41.9251 17.8284 41.6585 17.8284 41.3918C17.8284 41.1145 17.8284 40.8638 17.8284 40.6398V38.3358C17.8177 38.0905 17.8124 37.8238 17.8124 37.5358C17.8124 37.2478 17.855 36.9865 17.9404 36.7518C18.015 36.5491 18.1324 36.4211 18.2924 36.3678C18.4524 36.3038 18.6177 36.2771 18.7884 36.2878C18.9804 36.2878 19.1297 36.3411 19.2364 36.4478C19.3537 36.5438 19.439 36.6665 19.4924 36.8158C19.5457 36.9545 19.5777 37.1145 19.5884 37.2958C19.599 37.4665 19.6097 37.6318 19.6204 37.7918C19.7377 37.5251 19.8764 37.3065 20.0364 37.1358C20.207 36.9545 20.447 36.8371 20.7564 36.7838C21.5457 36.6345 22.175 36.8371 22.6444 37.3918C22.8577 37.1785 23.1297 37.0025 23.4604 36.8638C23.7164 36.7678 23.9777 36.7251 24.2444 36.7358C24.511 36.7358 24.7617 36.7838 24.9964 36.8798C25.2417 36.9758 25.4604 37.1145 25.6524 37.2958C25.855 37.4771 26.015 37.6958 26.1324 37.9518C26.2924 38.2931 26.383 38.6718 26.4044 39.0878C26.4257 39.5038 26.447 39.8985 26.4684 40.2718ZM33.3167 41.8078C33.4447 41.7758 33.5727 41.7545 33.7007 41.7438C33.8394 41.7331 33.9621 41.7491 34.0687 41.7918C34.1861 41.8345 34.2821 41.9091 34.3567 42.0158C34.4314 42.1118 34.4687 42.2505 34.4687 42.4318C34.4687 42.5598 34.4367 42.6825 34.3727 42.7998C34.3087 42.9171 34.2287 43.0238 34.1327 43.1198C34.0367 43.2158 33.9301 43.3011 33.8127 43.3758C33.6954 43.4398 33.5834 43.4931 33.4767 43.5358C33.1674 43.6745 32.8101 43.7811 32.4047 43.8558C32.0101 43.9305 31.5994 43.9571 31.1727 43.9358C30.5967 43.9145 30.0421 43.8025 29.5087 43.5998C28.9861 43.3865 28.5754 43.0398 28.2767 42.5598C27.9994 42.0905 27.8341 41.5678 27.7807 40.9918C27.7274 40.4158 27.7541 39.8718 27.8607 39.3598C27.9781 38.7411 28.1754 38.2398 28.4527 37.8558C28.7407 37.4611 29.0821 37.1465 29.4767 36.9118C29.9567 36.6345 30.4954 36.4905 31.0927 36.4798C31.6901 36.4691 32.2607 36.5865 32.8047 36.8318C33.1674 36.9918 33.4927 37.2105 33.7807 37.4878C34.0687 37.7545 34.2874 38.0798 34.4367 38.4638C34.4794 38.5598 34.5114 38.6771 34.5327 38.8158C34.5647 38.9545 34.5861 39.1038 34.5967 39.2638C34.6074 39.4131 34.6074 39.5625 34.5967 39.7118C34.5861 39.8611 34.5594 39.9945 34.5167 40.1118C34.4527 40.3038 34.3727 40.4531 34.2767 40.5598C34.1807 40.6665 34.0581 40.7465 33.9087 40.7998C33.7594 40.8531 33.5781 40.8905 33.3647 40.9118C33.1621 40.9225 32.9167 40.9331 32.6287 40.9438C32.3727 40.9545 32.1327 40.9598 31.9087 40.9598C31.6847 40.9598 31.4554 40.9598 31.2207 40.9598C30.9861 40.9491 30.7407 40.9438 30.4847 40.9438C30.2394 40.9331 29.9621 40.9225 29.6527 40.9118C29.6207 41.1251 29.6474 41.3118 29.7327 41.4718C29.8287 41.6211 29.9567 41.7491 30.1167 41.8558C30.2767 41.9518 30.4581 42.0265 30.6607 42.0798C30.8634 42.1331 31.0607 42.1651 31.2527 42.1758C31.6154 42.1971 31.9621 42.1705 32.2927 42.0958C32.6234 42.0105 32.9647 41.9145 33.3167 41.8078ZM32.6287 38.7038C32.4261 38.4691 32.2127 38.2985 31.9887 38.1918C31.8181 38.1171 31.6367 38.0851 31.4447 38.0958C31.2634 38.0958 31.0874 38.1225 30.9167 38.1758C30.6074 38.2505 30.3461 38.4105 30.1327 38.6558C30.1114 38.6771 30.0741 38.7305 30.0207 38.8158C29.9674 38.8905 29.9141 38.9705 29.8607 39.0558C29.8181 39.1411 29.7861 39.2211 29.7647 39.2958C29.7434 39.3705 29.7541 39.4078 29.7967 39.4078H32.9327C32.9221 39.2585 32.8954 39.1358 32.8527 39.0398C32.8101 38.9331 32.7354 38.8211 32.6287 38.7038Z" fill="white"/>
</svg>
