<svg width="43" height="43" viewBox="0 0 43 43" fill="none" xmlns="http://www.w3.org/2000/svg">
<path d="M10.2791 31.6801C10.6844 32.0534 10.983 32.5014 11.175 33.0241C11.367 33.5361 11.4417 34.0481 11.399 34.5601C11.3564 35.0508 11.2017 35.5041 10.935 35.9201C10.6684 36.3254 10.2631 36.6348 9.71907 36.8481C9.2924 37.0294 8.87107 37.1574 8.45507 37.2321C8.03907 37.3068 7.5804 37.3654 7.07907 37.4081C6.85507 37.4294 6.66307 37.4454 6.50307 37.4561C6.35373 37.4561 6.17773 37.4614 5.97507 37.4721C5.9324 37.4721 5.85773 37.4721 5.75107 37.4721C5.65507 37.4721 5.58573 37.4774 5.54307 37.4881V40.8001C5.51107 41.0028 5.4684 41.2108 5.41507 41.4241C5.3724 41.6374 5.24973 41.8028 5.04707 41.9201C4.92973 41.9841 4.78573 42.0214 4.61507 42.0321C4.4444 42.0428 4.28973 42.0374 4.15107 42.0161C4.00173 41.9948 3.87373 41.9574 3.76707 41.9041C3.67107 41.8401 3.59107 41.7334 3.52707 41.5841C3.4844 41.4881 3.44173 41.3814 3.39907 41.2641C3.36707 41.1361 3.35107 40.9814 3.35107 40.8001V31.9521C3.35107 31.8774 3.3564 31.8081 3.36707 31.7441C3.37773 31.6801 3.3884 31.6161 3.39907 31.5521C3.4204 31.4988 3.4364 31.4401 3.44707 31.3761C3.45773 31.3121 3.47373 31.2534 3.49507 31.2001C3.5164 31.1468 3.53773 31.0988 3.55907 31.0561C3.59107 31.0134 3.6284 30.9761 3.67107 30.9441C3.7244 30.8908 3.8044 30.8428 3.91107 30.8001C4.0284 30.7574 4.19907 30.7361 4.42307 30.7361H4.45507C4.78573 30.7148 5.15373 30.6988 5.55907 30.6881C5.9644 30.6668 6.3004 30.6721 6.56707 30.7041C6.7164 30.7254 6.85507 30.7414 6.98307 30.7521C7.11107 30.7521 7.23373 30.7574 7.35107 30.7681C7.47907 30.7788 7.60707 30.7894 7.73507 30.8001C7.86307 30.8108 7.99107 30.8268 8.11907 30.8481C8.22573 30.8694 8.32173 30.8854 8.40707 30.8961C8.50307 30.9068 8.59907 30.9228 8.69507 30.9441C8.7804 30.9654 8.87107 30.9868 8.96707 31.0081C9.07373 31.0294 9.16973 31.0668 9.25507 31.1201C9.47907 31.1841 9.66573 31.2641 9.81507 31.3601C9.9644 31.4561 10.1191 31.5628 10.2791 31.6801ZM9.31907 34.3201C9.32973 34.0641 9.2764 33.8401 9.15907 33.6481C9.0524 33.4561 8.89773 33.2961 8.69507 33.1681C8.4924 33.0401 8.26307 32.9388 8.00707 32.8641C7.75107 32.7894 7.49507 32.7361 7.23907 32.7041C7.17507 32.7041 7.0844 32.7041 6.96707 32.7041C6.8604 32.6934 6.74307 32.6881 6.61507 32.6881C6.48707 32.6774 6.3644 32.6721 6.24707 32.6721C6.1404 32.6614 6.05507 32.6561 5.99107 32.6561C5.93773 32.6454 5.87373 32.6401 5.79907 32.6401C5.7244 32.6401 5.63907 32.6401 5.54307 32.6401C5.55373 32.9708 5.55907 33.2908 5.55907 33.6001C5.55907 33.8988 5.55907 34.2241 5.55907 34.5761C5.5484 34.7681 5.54307 34.9601 5.54307 35.1521C5.54307 35.3441 5.54307 35.5308 5.54307 35.7121L6.53507 35.6961C6.79107 35.6961 7.07373 35.6801 7.38307 35.6481C7.6924 35.6161 7.98573 35.5521 8.26307 35.4561C8.5404 35.3601 8.77507 35.2214 8.96707 35.0401C9.16973 34.8588 9.28707 34.6188 9.31907 34.3201ZM17.0433 39.8081C17.1713 39.7761 17.2993 39.7548 17.4273 39.7441C17.566 39.7334 17.6886 39.7494 17.7953 39.7921C17.9126 39.8348 18.0086 39.9094 18.0833 40.0161C18.158 40.1121 18.1953 40.2508 18.1953 40.4321C18.1953 40.5601 18.1633 40.6828 18.0993 40.8001C18.0353 40.9174 17.9553 41.0241 17.8593 41.1201C17.7633 41.2161 17.6566 41.3014 17.5393 41.3761C17.422 41.4401 17.31 41.4934 17.2033 41.5361C16.894 41.6748 16.5366 41.7814 16.1313 41.8561C15.7366 41.9308 15.326 41.9574 14.8993 41.9361C14.3233 41.9148 13.7686 41.8028 13.2353 41.6001C12.7126 41.3868 12.302 41.0401 12.0033 40.5601C11.726 40.0908 11.5606 39.5681 11.5073 38.9921C11.454 38.4161 11.4806 37.8721 11.5873 37.3601C11.7046 36.7414 11.902 36.2401 12.1793 35.8561C12.4673 35.4614 12.8086 35.1468 13.2033 34.9121C13.6833 34.6348 14.222 34.4908 14.8193 34.4801C15.4166 34.4694 15.9873 34.5868 16.5313 34.8321C16.894 34.9921 17.2193 35.2108 17.5073 35.4881C17.7953 35.7548 18.014 36.0801 18.1633 36.4641C18.206 36.5601 18.238 36.6774 18.2593 36.8161C18.2913 36.9548 18.3126 37.1041 18.3233 37.2641C18.334 37.4134 18.334 37.5628 18.3233 37.7121C18.3126 37.8614 18.286 37.9948 18.2433 38.1121C18.1793 38.3041 18.0993 38.4534 18.0033 38.5601C17.9073 38.6668 17.7846 38.7468 17.6353 38.8001C17.486 38.8534 17.3046 38.8908 17.0913 38.9121C16.8886 38.9228 16.6433 38.9334 16.3553 38.9441C16.0993 38.9548 15.8593 38.9601 15.6353 38.9601C15.4113 38.9601 15.182 38.9601 14.9473 38.9601C14.7126 38.9494 14.4673 38.9441 14.2113 38.9441C13.966 38.9334 13.6886 38.9228 13.3793 38.9121C13.3473 39.1254 13.374 39.3121 13.4593 39.4721C13.5553 39.6214 13.6833 39.7494 13.8433 39.8561C14.0033 39.9521 14.1846 40.0268 14.3873 40.0801C14.59 40.1334 14.7873 40.1654 14.9793 40.1761C15.342 40.1974 15.6886 40.1708 16.0193 40.0961C16.35 40.0108 16.6913 39.9148 17.0433 39.8081ZM16.3553 36.7041C16.1526 36.4694 15.9393 36.2988 15.7153 36.1921C15.5446 36.1174 15.3633 36.0854 15.1713 36.0961C14.99 36.0961 14.814 36.1228 14.6433 36.1761C14.334 36.2508 14.0726 36.4108 13.8593 36.6561C13.838 36.6774 13.8006 36.7308 13.7473 36.8161C13.694 36.8908 13.6406 36.9708 13.5873 37.0561C13.5446 37.1414 13.5126 37.2214 13.4913 37.2961C13.47 37.3708 13.4806 37.4081 13.5233 37.4081H16.6593C16.6486 37.2588 16.622 37.1361 16.5793 37.0401C16.5366 36.9334 16.462 36.8214 16.3553 36.7041ZM19.6327 36.3361C19.6327 36.2081 19.6327 36.0641 19.6327 35.9041C19.6327 35.7334 19.638 35.5628 19.6487 35.3921C19.6593 35.2108 19.6753 35.0401 19.6967 34.8801C19.7287 34.7094 19.7713 34.5601 19.8247 34.4321C19.91 34.2401 20.0433 34.1121 20.2247 34.0481C20.406 33.9734 20.6033 33.9414 20.8167 33.9521C21.0407 33.9521 21.2167 33.9894 21.3447 34.0641C21.4727 34.1388 21.5687 34.2401 21.6327 34.3681C21.6967 34.4854 21.734 34.6241 21.7447 34.7841C21.766 34.9334 21.7767 35.0934 21.7767 35.2641C21.8727 35.0934 22.0007 34.9548 22.1607 34.8481C22.3313 34.7414 22.502 34.6561 22.6727 34.5921C22.8433 34.5281 22.998 34.4854 23.1367 34.4641C23.2753 34.4321 23.3553 34.4161 23.3767 34.4161C23.6433 34.3948 23.8833 34.3894 24.0967 34.4001C24.3207 34.4108 24.566 34.4588 24.8327 34.5441C25.0033 34.6081 25.1793 34.6988 25.3607 34.8161C25.542 34.9228 25.702 35.0508 25.8407 35.2001C25.9793 35.3494 26.07 35.5148 26.1127 35.6961C26.166 35.8668 26.1447 36.0481 26.0487 36.2401C25.8993 36.5068 25.734 36.6401 25.5527 36.6401C25.3713 36.6294 25.174 36.5974 24.9607 36.5441C24.8433 36.5228 24.7047 36.4748 24.5447 36.4001C24.3847 36.3254 24.246 36.2774 24.1287 36.2561C23.766 36.2028 23.446 36.2294 23.1687 36.3361C22.8913 36.4428 22.6513 36.5708 22.4487 36.7201C22.214 36.9014 22.0113 37.1094 21.8407 37.3441V39.6481C21.8407 39.9361 21.8353 40.2348 21.8247 40.5441C21.8247 40.8534 21.782 41.1361 21.6967 41.3921C21.622 41.6374 21.4887 41.8401 21.2967 42.0001C21.1153 42.1494 20.8487 42.2134 20.4967 42.1921C20.3047 42.1814 20.134 42.0908 19.9847 41.9201C19.8353 41.7388 19.7447 41.5628 19.7127 41.3921C19.6913 41.2321 19.6753 41.0401 19.6647 40.8161C19.654 40.5921 19.6433 40.3574 19.6327 40.1121C19.6327 39.8668 19.6327 39.6214 19.6327 39.3761C19.6327 39.1201 19.6327 38.8854 19.6327 38.6721V36.3361ZM32.0212 35.2321C32.2025 35.2854 32.3198 35.3868 32.3732 35.5361C32.4265 35.6748 32.4425 35.8241 32.4212 35.9841C32.3572 36.3148 32.1758 36.5174 31.8772 36.5921C31.7065 36.6348 31.5305 36.6561 31.3492 36.6561C31.1785 36.6561 31.0025 36.6614 30.8212 36.6721V40.3681C30.8212 40.6241 30.8052 40.8854 30.7732 41.1521C30.7732 41.2481 30.7465 41.3494 30.6932 41.4561C30.6718 41.5094 30.6558 41.5414 30.6452 41.5521C30.6452 41.5734 30.6345 41.6054 30.6132 41.6481C30.5492 41.7654 30.4638 41.8614 30.3572 41.9361C30.1225 42.0641 29.8718 42.0961 29.6052 42.0321C29.4452 42.0001 29.3225 41.9468 29.2372 41.8721C29.1412 41.7974 29.0718 41.7068 29.0292 41.6001C29.0078 41.5468 28.9918 41.4934 28.9812 41.4401C28.9705 41.3868 28.9545 41.3334 28.9332 41.2801C28.9225 41.2268 28.9118 41.1788 28.9012 41.1361C28.9012 41.0828 28.9012 41.0401 28.9012 41.0081V40.0801C28.9012 39.5254 28.9012 38.9494 28.9012 38.3521C28.9118 37.7548 28.9172 37.1788 28.9172 36.6241C28.6718 36.6134 28.4158 36.6081 28.1492 36.6081C27.8932 36.5974 27.7065 36.5334 27.5892 36.4161C27.5252 36.3521 27.4825 36.2721 27.4612 36.1761C27.4398 36.0694 27.4292 35.9628 27.4292 35.8561C27.4398 35.7494 27.4612 35.6534 27.4932 35.5681C27.5252 35.4721 27.5678 35.4028 27.6212 35.3601C27.7598 35.2321 27.8825 35.1628 27.9892 35.1521C28.1065 35.1308 28.2505 35.1148 28.4212 35.1041C28.4425 35.1041 28.5118 35.1041 28.6292 35.1041C28.7572 35.0934 28.8372 35.0881 28.8692 35.0881C28.8798 34.7254 28.8905 34.3628 28.9012 34.0001C28.9118 33.6374 28.9438 33.3068 28.9972 33.0081C29.0612 32.6988 29.1518 32.4321 29.2692 32.2081C29.3972 31.9734 29.5892 31.7974 29.8452 31.6801C30.1545 31.5414 30.5065 31.4561 30.9012 31.4241C31.2958 31.3921 31.6532 31.4401 31.9732 31.5681C32.1225 31.6214 32.2665 31.7281 32.4052 31.8881C32.5545 32.0481 32.6238 32.2241 32.6132 32.4161C32.6025 32.6081 32.5652 32.7841 32.5012 32.9441C32.4372 33.1041 32.2985 33.2108 32.0852 33.2641C31.9892 33.2854 31.8878 33.2961 31.7812 33.2961C31.6852 33.2854 31.5838 33.2801 31.4772 33.2801C31.3705 33.2801 31.2692 33.2961 31.1732 33.3281C31.0878 33.3494 31.0132 33.3974 30.9492 33.4721C30.8958 33.5361 30.8585 33.6214 30.8372 33.7281C30.8265 33.8348 30.8158 33.9468 30.8052 34.0641C30.7945 34.1814 30.7892 34.2988 30.7892 34.4161C30.7998 34.5228 30.8052 34.6134 30.8052 34.6881V35.0881C31.0505 35.1094 31.2745 35.1254 31.4772 35.1361C31.6905 35.1468 31.8718 35.1788 32.0212 35.2321ZM35.9295 35.9361C35.9295 36.2348 35.9295 36.5708 35.9295 36.9441C35.9402 37.3174 35.9455 37.7068 35.9455 38.1121C35.9455 38.5068 35.9455 38.9014 35.9455 39.2961C35.9455 39.6801 35.9402 40.0374 35.9295 40.3681C35.9189 40.5281 35.9029 40.7041 35.8815 40.8961C35.8602 41.0774 35.8175 41.2481 35.7535 41.4081C35.6895 41.5681 35.5882 41.7014 35.4495 41.8081C35.3215 41.9041 35.1455 41.9468 34.9215 41.9361C34.5909 41.9148 34.3509 41.7708 34.2015 41.5041C34.0629 41.2374 33.9829 40.8641 33.9615 40.3841C33.9615 40.1388 33.9562 39.8561 33.9455 39.5361C33.9455 39.2161 33.9402 38.8908 33.9295 38.5601C33.9295 38.2294 33.9295 37.9094 33.9295 37.6001C33.9295 37.2801 33.9295 36.9921 33.9295 36.7361C33.9295 36.5868 33.9242 36.4054 33.9135 36.1921C33.9135 35.9788 33.9189 35.7601 33.9295 35.5361C33.9402 35.3121 33.9669 35.0988 34.0095 34.8961C34.0522 34.6828 34.1215 34.5068 34.2175 34.3681C34.2922 34.2828 34.3989 34.2188 34.5375 34.1761C34.6762 34.1228 34.8202 34.0961 34.9695 34.0961C35.1295 34.0961 35.2789 34.1228 35.4175 34.1761C35.5669 34.2294 35.6735 34.3041 35.7375 34.4001C35.7802 34.4641 35.8122 34.5548 35.8335 34.6721C35.8549 34.7894 35.8709 34.9228 35.8815 35.0721C35.9029 35.2108 35.9135 35.3601 35.9135 35.5201C35.9242 35.6694 35.9295 35.8081 35.9295 35.9361ZM35.3215 32.7041C34.9909 32.7894 34.7135 32.7574 34.4895 32.6081C34.2762 32.4481 34.1429 32.2134 34.0895 31.9041C34.0469 31.6801 34.0629 31.4828 34.1375 31.3121C34.2122 31.1414 34.3242 31.0134 34.4735 30.9281C34.6229 30.8321 34.7935 30.7894 34.9855 30.8001C35.1775 30.8108 35.3695 30.8854 35.5615 31.0241C35.7429 31.1521 35.8709 31.3014 35.9455 31.4721C36.0309 31.6428 36.0575 31.8081 36.0255 31.9681C36.0042 32.1281 35.9349 32.2774 35.8175 32.4161C35.7002 32.5441 35.5349 32.6401 35.3215 32.7041ZM39.6197 40.7201C39.609 40.7734 39.5983 40.8268 39.5877 40.8801C39.5877 40.9228 39.5877 40.9708 39.5877 41.0241L39.4917 41.3601C39.4703 41.4028 39.4543 41.4294 39.4437 41.4401L39.3957 41.5361C39.3423 41.6534 39.2463 41.7494 39.1077 41.8241C38.8517 41.9521 38.5797 41.9841 38.2917 41.9201C38.1103 41.8988 37.9663 41.8454 37.8597 41.7601C37.753 41.6854 37.6783 41.5948 37.6357 41.4881C37.593 41.3814 37.561 41.2748 37.5397 41.1681C37.5077 41.0614 37.4917 40.9654 37.4917 40.8801V31.9201C37.4917 31.8454 37.4917 31.7814 37.4917 31.7281C37.5023 31.6641 37.513 31.6054 37.5237 31.5521C37.5343 31.4774 37.545 31.4134 37.5557 31.3601C37.577 31.3068 37.5983 31.2481 37.6197 31.1841C37.6517 31.0774 37.7103 30.9921 37.7957 30.9281C37.9237 30.8321 38.0463 30.7788 38.1637 30.7681C38.2383 30.7468 38.3077 30.7361 38.3717 30.7361C38.4357 30.7254 38.5103 30.7201 38.5957 30.7201C38.745 30.7201 38.9157 30.7628 39.1077 30.8481C39.257 30.9334 39.3637 31.0508 39.4277 31.2001C39.5343 31.4134 39.5877 31.6108 39.5877 31.7921C39.5983 31.8988 39.6037 32.0588 39.6037 32.2721C39.6143 32.4854 39.6197 32.6454 39.6197 32.7521V32.8161C39.641 33.1574 39.6517 33.4881 39.6517 33.8081C39.6517 34.1174 39.6463 34.4588 39.6357 34.8321C39.6357 35.1948 39.6303 35.5468 39.6197 35.8881C39.6197 36.2188 39.6197 36.5494 39.6197 36.8801V40.2401C39.6197 40.2828 39.6197 40.3254 39.6197 40.3681C39.6303 40.4001 39.6357 40.4374 39.6357 40.4801C39.6357 40.5868 39.6303 40.6668 39.6197 40.7201Z" fill="#6EC76E"/>
<mask id="mask0_745_485" style="mask-type:luminance" maskUnits="userSpaceOnUse" x="9" y="0" width="26" height="25">
<path d="M34.5 0H9.5V25H34.5V0Z" fill="white"/>
</mask>
<g mask="url(#mask0_745_485)">
<path d="M22.0002 11.4583C22.8243 11.4583 23.6299 11.214 24.3151 10.7561C25.0003 10.2983 25.5343 9.64754 25.8497 8.88618C26.1651 8.12482 26.2476 7.28705 26.0868 6.47879C25.926 5.67054 25.5292 4.92811 24.9465 4.34539C24.3638 3.76267 23.6213 3.36583 22.8131 3.20506C22.0048 3.04429 21.167 3.12681 20.4057 3.44217C19.6443 3.75754 18.9936 4.29159 18.5357 4.97679C18.0779 5.662 17.8335 6.46758 17.8335 7.29167C17.8335 8.39674 18.2725 9.45655 19.0539 10.2379C19.8353 11.0193 20.8951 11.4583 22.0002 11.4583ZM22.0002 5.20833C22.4122 5.20833 22.815 5.33052 23.1576 5.55944C23.5002 5.78836 23.7673 6.11373 23.9249 6.49441C24.0826 6.87509 24.1239 7.29398 24.0435 7.69811C23.9631 8.10223 23.7647 8.47345 23.4733 8.76481C23.182 9.05617 22.8108 9.25459 22.4066 9.33497C22.0025 9.41536 21.5836 9.3741 21.2029 9.21642C20.8223 9.05874 20.4969 8.79171 20.268 8.44911C20.039 8.1065 19.9169 7.70371 19.9169 7.29167C19.9169 6.73913 20.1364 6.20923 20.5271 5.81853C20.9178 5.42783 21.4477 5.20833 22.0002 5.20833Z" fill="#6EC76E"/>
<path d="M22.0002 13.5415C20.0663 13.5415 18.2117 14.3097 16.8442 15.6772C15.4768 17.0446 14.7085 18.8993 14.7085 20.8332C14.7085 21.1094 14.8183 21.3744 15.0136 21.5697C15.209 21.7651 15.4739 21.8748 15.7502 21.8748C16.0265 21.8748 16.2914 21.7651 16.4868 21.5697C16.6821 21.3744 16.7919 21.1094 16.7919 20.8332C16.7919 19.4518 17.3406 18.1271 18.3174 17.1503C19.2941 16.1736 20.6189 15.6248 22.0002 15.6248C23.3815 15.6248 24.7063 16.1736 25.683 17.1503C26.6598 18.1271 27.2085 19.4518 27.2085 20.8332C27.2085 21.1094 27.3183 21.3744 27.5136 21.5697C27.709 21.7651 27.9739 21.8748 28.2502 21.8748C28.5265 21.8748 28.7914 21.7651 28.9868 21.5697C29.1821 21.3744 29.2919 21.1094 29.2919 20.8332C29.2919 18.8993 28.5236 17.0446 27.1562 15.6772C25.7887 14.3097 23.9341 13.5415 22.0002 13.5415Z" fill="#6EC76E"/>
</g>
</svg>
